<svg width="183" height="34" viewBox="0 0 183 34" fill="none" xmlns="http://www.w3.org/2000/svg">
<path d="M7.46189 6.49323C8.48127 6.49323 9.33755 5.6355 9.33755 4.6144C9.33755 3.5933 8.48127 2.73558 7.46189 2.73558C6.4425 2.73558 5.58622 3.5933 5.58622 4.6144C5.58622 5.6355 6.4425 6.49323 7.46189 6.49323ZM6.4425 19.7675C6.4425 20.0534 6.68716 20.2985 6.97258 20.2985C7.25801 20.2985 7.50266 20.0534 7.50266 19.7675C7.50266 19.4816 7.25801 19.2366 6.97258 19.2366C6.68716 19.2366 6.4425 19.4816 6.4425 19.7675ZM10.1938 8.86218C10.6424 8.86218 10.9686 8.49458 10.9686 8.08614C10.9686 7.63686 10.6016 7.31011 10.1938 7.31011C9.74531 7.31011 9.4191 7.6777 9.4191 8.08614C9.4191 8.49458 9.74531 8.86218 10.1938 8.86218ZM4.03676 15.9282C5.05614 15.9282 5.91243 15.0705 5.91243 14.0494C5.91243 13.0283 5.05614 12.1705 4.03676 12.1705C3.01738 12.1705 2.16109 13.0283 2.16109 14.0494C2.20187 15.0705 3.01738 15.9282 4.03676 15.9282ZM1.34559 11.517C1.79412 11.517 2.12032 11.1494 2.12032 10.741C2.12032 10.2917 1.75334 9.96497 1.34559 9.96497C0.897058 9.96497 0.570855 10.3326 0.570855 10.741C0.570855 11.1903 0.897058 11.517 1.34559 11.517ZM1.06016 13.2325C1.06016 12.9466 0.815507 12.7015 0.53008 12.7015C0.244652 12.7015 0 12.9466 0 13.2325C0 13.5184 0.244652 13.7635 0.53008 13.7635C0.815507 13.7635 1.06016 13.5184 1.06016 13.2325ZM3.54745 8.82133C4.28141 8.82133 4.85227 8.24952 4.85227 7.51433C4.85227 6.77913 4.28141 6.20732 3.54745 6.20732C2.8135 6.20732 2.24264 6.77913 2.24264 7.51433C2.24264 8.24952 2.8135 8.82133 3.54745 8.82133ZM19.4091 1.63279C19.6945 1.63279 19.9391 1.38773 19.9391 1.10182C19.9391 0.815911 19.6945 0.570847 19.4091 0.570847C19.1236 0.570847 18.879 0.815911 18.879 1.10182C18.879 1.38773 19.1236 1.63279 19.4091 1.63279ZM5.13769 19.5633C5.13769 18.2971 4.11831 17.276 2.85427 17.276C1.59024 17.276 0.570855 18.2971 0.570855 19.5633C0.570855 20.8295 1.59024 21.8506 2.85427 21.8506C4.11831 21.8506 5.13769 20.8295 5.13769 19.5633ZM28.0127 9.92412C29.032 9.92412 29.8883 9.0664 29.8883 8.0453C29.8883 7.0242 29.032 6.16647 28.0127 6.16647C26.9933 6.16647 26.137 7.0242 26.137 8.0453C26.137 9.0664 26.9525 9.92412 28.0127 9.92412ZM23.8128 22.8308C23.8128 23.566 24.3837 24.1378 25.1176 24.1378C25.8516 24.1378 26.4224 23.566 26.4224 22.8308C26.4224 22.0956 25.8516 21.5238 25.1176 21.5238C24.3837 21.5238 23.8128 22.0956 23.8128 22.8308ZM25.1176 5.43128C25.8516 5.43128 26.4224 4.85947 26.4224 4.12427C26.4224 3.38908 25.8516 2.81727 25.1176 2.81727C24.3837 2.81727 23.8128 3.38908 23.8128 4.12427C23.8128 4.85947 24.3837 5.43128 25.1176 5.43128ZM22.2226 8.82133C22.9565 8.82133 23.5274 8.24952 23.5274 7.51433C23.5274 6.77913 22.9565 6.20732 22.2226 6.20732C21.4886 6.20732 20.9178 6.77913 20.9178 7.51433C20.9178 8.24952 21.4886 8.82133 22.2226 8.82133ZM26.9117 13.4367C26.9117 14.7029 27.9311 15.724 29.1951 15.724C30.4592 15.724 31.4786 14.7029 31.4786 13.4367C31.4786 12.1705 30.4592 11.1494 29.1951 11.1494C27.9311 11.1494 26.9117 12.1705 26.9117 13.4367ZM25.6069 13.2325C25.6069 12.9466 25.3623 12.7015 25.0768 12.7015C24.7914 12.7015 24.5468 12.9466 24.5468 13.2325C24.5468 13.5184 24.7914 13.7635 25.0768 13.7635C25.3623 13.7635 25.6069 13.5184 25.6069 13.2325ZM21.8556 2.65389C22.3041 2.65389 22.6303 2.28629 22.6303 1.87785C22.6303 1.46941 22.2633 1.10182 21.8556 1.10182C21.4071 1.10182 21.0809 1.46941 21.0809 1.87785C21.0809 2.28629 21.4478 2.65389 21.8556 2.65389ZM24.3021 11.517C24.7506 11.517 25.0768 11.1494 25.0768 10.741C25.0768 10.2917 24.7099 9.96497 24.3021 9.96497C23.8944 9.96497 23.5274 10.3326 23.5274 10.741C23.5274 11.1903 23.8944 11.517 24.3021 11.517ZM8.23662 10.1692C8.23662 9.43399 7.66576 8.86218 6.93181 8.86218C6.19785 8.86218 5.627 9.43399 5.627 10.1692C5.627 10.9044 6.19785 11.4762 6.93181 11.4762C7.66576 11.4762 8.23662 10.9044 8.23662 10.1692ZM21.8556 24.1378C21.4071 24.1378 21.0809 24.5054 21.0809 24.9139C21.0809 25.3631 21.4478 25.6899 21.8556 25.6899C22.3041 25.6899 22.6303 25.3223 22.6303 24.9139C22.6303 24.5054 22.3041 24.1378 21.8556 24.1378ZM19.2052 27.2828C17.9412 27.2828 16.9218 28.3039 16.9218 29.5701C16.9218 30.8362 17.9412 31.8573 19.2052 31.8573C20.4692 31.8573 21.4886 30.8362 21.4886 29.5701C21.4886 28.3039 20.4692 27.2828 19.2052 27.2828ZM24.5875 26.5068C23.5681 26.5068 22.7119 27.3645 22.7119 28.3856C22.7119 29.4067 23.5681 30.2644 24.5875 30.2644C25.6069 30.2644 26.4632 29.4067 26.4632 28.3856C26.4632 27.3645 25.6069 26.5068 24.5875 26.5068ZM18.879 25.6899C18.879 25.9758 19.1236 26.2209 19.4091 26.2209C19.6945 26.2209 19.9391 25.9758 19.9391 25.6899C19.9391 25.404 19.6945 25.1589 19.4091 25.1589C19.1236 25.1998 18.879 25.404 18.879 25.6899ZM31.5193 19.2366C31.2339 19.2366 30.9893 19.4816 30.9893 19.7675C30.9893 20.0534 31.2339 20.2985 31.5193 20.2985C31.8048 20.2985 32.0494 20.0534 32.0494 19.7675C32.0494 19.4816 31.764 19.2366 31.5193 19.2366ZM30.7038 21.483C30.2553 21.483 29.9291 21.8506 29.9291 22.259C29.9291 22.7083 30.2961 23.035 30.7038 23.035C31.1524 23.035 31.4786 22.6674 31.4786 22.259C31.4786 21.8097 31.1524 21.483 30.7038 21.483ZM18.3489 6.49323C19.3683 6.49323 20.2246 5.6355 20.2246 4.6144C20.2246 3.5933 19.3683 2.73558 18.3489 2.73558C17.3295 2.73558 16.4732 3.5933 16.4732 4.6144C16.4732 5.6355 17.3295 6.49323 18.3489 6.49323ZM28.0127 17.0718C26.9933 17.0718 26.137 17.9295 26.137 18.9506C26.137 19.9717 26.9933 20.8295 28.0127 20.8295C29.032 20.8295 29.8883 19.9717 29.8883 18.9506C29.8476 17.9295 29.032 17.0718 28.0127 17.0718ZM4.03676 23.0759C3.01738 23.0759 2.16109 23.9336 2.16109 24.9547C2.16109 25.9758 3.01738 26.8335 4.03676 26.8335C5.05614 26.8335 5.91243 25.9758 5.91243 24.9547C5.91243 23.9336 5.09692 23.0759 4.03676 23.0759ZM28.502 24.1787C27.768 24.1787 27.1972 24.7505 27.1972 25.4857C27.1972 26.2209 27.768 26.7927 28.502 26.7927C29.2359 26.7927 29.8068 26.2209 29.8068 25.4857C29.8068 24.7505 29.2359 24.1787 28.502 24.1787ZM7.74732 21.483C7.29879 21.483 6.97258 21.8506 6.97258 22.259C6.97258 22.7083 7.33956 23.035 7.74732 23.035C8.15507 23.035 8.52205 22.6674 8.52205 22.259C8.52205 21.8097 8.15507 21.483 7.74732 21.483ZM9.82686 24.1787C9.0929 24.1787 8.52205 24.7505 8.52205 25.4857C8.52205 26.2209 9.0929 26.7927 9.82686 26.7927C10.5608 26.7927 11.1317 26.2209 11.1317 25.4857C11.1317 24.7505 10.5608 24.1787 9.82686 24.1787ZM10.1938 30.3461C9.74531 30.3461 9.4191 30.7137 9.4191 31.1222C9.4191 31.5306 9.78608 31.8982 10.1938 31.8982C10.6424 31.8982 10.9686 31.5306 10.9686 31.1222C10.9686 30.7137 10.6016 30.3461 10.1938 30.3461ZM6.93181 27.5687C6.19785 27.5687 5.627 28.1405 5.627 28.8757C5.627 29.6109 6.19785 30.1827 6.93181 30.1827C7.66576 30.1827 8.23662 29.6109 8.23662 28.8757C8.23662 28.1405 7.66576 27.5687 6.93181 27.5687ZM12.1511 7.31011C12.1511 7.59601 12.3957 7.84108 12.6811 7.84108C12.9666 7.84108 13.2112 7.59601 13.2112 7.31011C13.2112 7.0242 12.9666 6.77913 12.6811 6.77913C12.3549 6.77913 12.1511 7.0242 12.1511 7.31011ZM15.1277 3.38908C15.1277 2.12292 14.1083 1.10182 12.8442 1.10182C11.5802 1.10182 10.5608 2.12292 10.5608 3.38908C10.5608 4.65525 11.5802 5.67635 12.8442 5.67635C14.1083 5.71719 15.1277 4.69609 15.1277 3.38908ZM12.6404 31.3672C12.3549 31.3672 12.1103 31.6123 12.1103 31.8982C12.1103 32.1841 12.3549 32.4292 12.6404 32.4292C12.9258 32.4292 13.1704 32.1841 13.1704 31.8982C13.1704 31.6123 12.9258 31.3672 12.6404 31.3672ZM13.7005 26.5068C12.6811 26.5068 11.8248 27.3645 11.8248 28.3856C11.8248 29.4067 12.6811 30.2644 13.7005 30.2644C14.7199 30.2644 15.5762 29.4067 15.5762 28.3856C15.5762 27.3645 14.7199 26.5068 13.7005 26.5068Z" fill="#0A0A0A"/>
<path d="M40.9128 17.0448C40.9128 10.6707 44.7373 5.78912 51.1735 5.78912C56.7702 5.78912 60.4392 9.14715 61.0921 14.5573H58.5425C58.045 10.3909 55.4643 7.96562 51.1735 7.96562C46.0743 7.96562 43.4625 11.759 43.4625 17.0448C43.4625 22.3616 46.0743 26.155 51.1735 26.155C55.4643 26.155 58.045 23.6986 58.5425 19.5322H61.0921C60.4392 24.9734 56.7702 28.3315 51.1735 28.3315C44.7373 28.3315 40.9128 23.4499 40.9128 17.0448ZM63.0495 20.2784C63.0495 15.801 66.2832 12.2564 71.227 12.2564C76.1397 12.2564 79.3733 15.801 79.3733 20.2784C79.3733 24.818 76.1397 28.3315 71.227 28.3315C66.2832 28.3315 63.0495 24.818 63.0495 20.2784ZM65.5992 20.2784C65.5992 23.5121 67.558 26.155 71.227 26.155C74.8337 26.155 76.7926 23.5121 76.7926 20.2784C76.7926 17.0758 74.8337 14.464 71.227 14.464C67.558 14.464 65.5992 17.0758 65.5992 20.2784ZM90.0744 14.464C86.8096 14.464 84.5087 17.0137 84.5087 21.1801V28.0206H81.9591V12.5674H84.5087V15.2414L84.1045 17.0137H84.8197C85.4415 14.2153 87.4004 12.2564 90.7584 12.2564C94.2719 12.2564 96.5417 14.3086 96.5417 18.5683V28.0206H93.9921V18.9103C93.9921 15.7078 92.7173 14.464 90.0744 14.464ZM105.986 27.3054L110.774 12.5674H113.262L108.225 28.0206H103.001L97.9331 12.5674H100.421L105.24 27.3054H105.986ZM113.996 20.0919C113.996 15.117 117.105 12.2564 121.489 12.2564C125.842 12.2564 128.703 15.0237 128.703 19.7809V20.7759H116.514C116.67 23.6986 118.038 26.1861 121.862 26.1861C124.412 26.1861 126.122 24.9424 126.682 22.6104H129.231C128.672 25.0045 126.775 28.3315 121.862 28.3315C116.328 28.3315 113.996 24.5381 113.996 20.0919ZM116.514 18.8481H126.184C126.184 16.3918 124.567 14.4019 121.489 14.4019C118.442 14.4019 116.514 16.3918 116.514 18.8481ZM134.362 28.0206H131.812V14.4019C131.812 12.9405 132.496 12.2254 133.958 12.2875L142.539 12.5674V14.775L134.362 14.464V28.0206ZM160.469 12.5674H161.837V14.775H160.531C159.691 14.775 159.132 14.9615 158.541 15.3657C159.163 16.2052 159.567 17.2935 159.567 18.6305C159.567 21.9574 156.955 24.0407 152.291 25.7508C155.898 25.16 159.38 25.6575 159.38 29.0777C159.38 33.182 155.152 33.7106 144.798 33.7106V31.5341C153.659 31.5341 156.831 31.3164 156.831 28.8912C156.831 25.4709 150.022 27.1189 146.166 28.2382L145.637 26.4659C148.187 25.813 150.612 25.0978 153.006 24.3516V23.6365C148.032 24.9113 143.679 23.2944 143.679 18.5061C143.679 14.2464 147.161 12.2564 151.607 12.2564C153.473 12.2564 155.401 12.7228 156.862 13.7489C158.479 12.7228 159.07 12.5674 160.469 12.5674ZM151.638 22.7037C154.903 22.7037 157.017 21.5843 157.017 18.5683C157.017 15.5834 154.903 14.464 151.638 14.464C148.405 14.464 146.228 15.5834 146.228 18.5683C146.228 21.5843 148.405 22.7037 151.638 22.7037ZM162.665 20.0919C162.665 15.117 165.774 12.2564 170.158 12.2564C174.511 12.2564 177.372 15.0237 177.372 19.7809V20.7759H165.183C165.339 23.6986 166.707 26.1861 170.531 26.1861C173.081 26.1861 174.791 24.9424 175.351 22.6104H177.9C177.341 25.0045 175.444 28.3315 170.531 28.3315C164.997 28.3315 162.665 24.5381 162.665 20.0919ZM165.183 18.8481H174.853C174.853 16.3918 173.236 14.4019 170.158 14.4019C167.111 14.4019 165.183 16.3918 165.183 18.8481Z" fill="#0A0A0A"/>
<path d="M61.0921 14.5573V14.6351H61.1799L61.1694 14.548L61.0921 14.5573ZM58.5425 14.5573L58.4653 14.5665L58.4734 14.6351H58.5425V14.5573ZM58.5425 19.5322V19.4544H58.4734L58.4653 19.523L58.5425 19.5322ZM61.0921 19.5322L61.1694 19.5415L61.1798 19.4544H61.0921V19.5322ZM40.9128 17.0448H40.9906C40.9906 13.8729 41.9422 11.0783 43.6882 9.07783C45.4332 7.07857 47.9766 5.86693 51.1735 5.86693V5.78912V5.7113C47.9342 5.7113 45.3472 6.94046 43.571 8.9755C41.7957 11.0094 40.835 13.8426 40.835 17.0448H40.9128ZM51.1735 5.78912V5.86693C53.9559 5.86693 56.2529 6.70138 57.9349 8.20246C59.617 9.70361 60.6903 11.8771 61.0149 14.5666L61.0921 14.5573L61.1694 14.548C60.841 11.8274 59.7534 9.61675 58.0385 8.08635C56.3236 6.55587 53.9878 5.7113 51.1735 5.7113V5.78912ZM61.0921 14.5573V14.4795H58.5425V14.5573V14.6351H61.0921V14.5573ZM58.5425 14.5573L58.6198 14.5481C58.3694 12.4509 57.5935 10.784 56.3328 9.64139C55.0718 8.49862 53.3338 7.88781 51.1735 7.88781V7.96562V8.04343C53.304 8.04343 55.0018 8.64525 56.2283 9.75671C57.4549 10.8684 58.2182 12.4972 58.4653 14.5665L58.5425 14.5573ZM51.1735 7.96562V7.88781C48.6026 7.88781 46.6516 8.8451 45.3451 10.4743C44.0404 12.1012 43.3846 14.3901 43.3846 17.0448H43.4625H43.5403C43.5403 14.4136 44.1904 12.1629 45.4665 10.5717C46.7406 8.98281 48.6451 8.04343 51.1735 8.04343V7.96562ZM43.4625 17.0448H43.3846C43.3846 19.7148 44.0403 22.0115 45.345 23.6423C46.6515 25.2755 48.6026 26.2328 51.1735 26.2328V26.155V26.0772C48.6451 26.0772 46.7407 25.1378 45.4665 23.5451C44.1905 21.95 43.5403 19.6916 43.5403 17.0448H43.4625ZM51.1735 26.155V26.2328C53.3341 26.2328 55.072 25.6141 56.333 24.4635C57.5936 23.3132 58.3694 21.6385 58.6198 19.5414L58.5425 19.5322L58.4653 19.523C58.2182 21.5923 57.4549 23.2291 56.2281 24.3485C55.0015 25.4677 53.3038 26.0772 51.1735 26.0772V26.155ZM58.5425 19.5322V19.61H61.0921V19.5322V19.4544H58.5425V19.5322ZM61.0921 19.5322L61.0149 19.5229C60.6903 22.2281 59.6169 24.4093 57.9348 25.9143C56.2529 27.4192 53.9559 28.2537 51.1735 28.2537V28.3315V28.4093C53.9878 28.4093 56.3237 27.5647 58.0386 26.0303C59.7535 24.496 60.8411 22.2776 61.1694 19.5415L61.0921 19.5322ZM51.1735 28.3315V28.2537C47.9766 28.2537 45.4333 27.042 43.6882 25.0389C41.9422 23.0346 40.9906 20.2323 40.9906 17.0448H40.9128H40.835C40.835 20.2624 41.7957 23.1034 43.5709 25.1412C45.3472 27.1801 47.9342 28.4093 51.1735 28.4093V28.3315ZM63.0495 20.2784H63.1273C63.1273 15.843 66.3272 12.3343 71.227 12.3343V12.2564V12.1786C66.2392 12.1786 62.9717 15.7591 62.9717 20.2784H63.0495ZM71.227 12.2564V12.3343C76.0955 12.3343 79.2955 15.8428 79.2955 20.2784H79.3733H79.4511C79.4511 15.7593 76.1838 12.1786 71.227 12.1786V12.2564ZM79.3733 20.2784H79.2955C79.2955 24.7762 76.0955 28.2537 71.227 28.2537V28.3315V28.4093C76.1838 28.4093 79.4511 24.8598 79.4511 20.2784H79.3733ZM71.227 28.3315V28.2537C66.3272 28.2537 63.1273 24.776 63.1273 20.2784H63.0495H62.9717C62.9717 24.86 66.2392 28.4093 71.227 28.4093V28.3315ZM65.5992 20.2784H65.5213C65.5213 21.9105 66.0157 23.3992 66.9791 24.4811C67.9436 25.5641 69.3724 26.2328 71.227 26.2328V26.155V26.0772C69.4125 26.0772 68.0275 25.4244 67.0953 24.3776C66.162 23.3295 65.677 21.88 65.677 20.2784H65.5992ZM71.227 26.155V26.2328C73.0508 26.2328 74.4641 25.5638 75.4206 24.4808C76.3761 23.3991 76.8704 21.9105 76.8704 20.2784H76.7926H76.7148C76.7148 21.88 76.2297 23.3297 75.304 24.3778C74.3794 25.4247 73.0099 26.0772 71.227 26.0772V26.155ZM76.7926 20.2784H76.8704C76.8704 18.6617 76.3759 17.1885 75.4204 16.1184C74.4637 15.0472 73.0505 14.3862 71.227 14.3862V14.464V14.5419C73.0102 14.5419 74.3798 15.1868 75.3043 16.2221C76.2298 17.2586 76.7148 18.6925 76.7148 20.2784H76.7926ZM71.227 14.464V14.3862C69.3728 14.3862 67.9439 15.0469 66.9794 16.1182C66.0158 17.1884 65.5213 18.6617 65.5213 20.2784H65.5992H65.677C65.677 18.6926 66.1619 17.2587 67.095 16.2223C68.0271 15.1871 69.4122 14.5419 71.227 14.5419V14.464ZM84.5087 28.0206V28.0984H84.5866V28.0206H84.5087ZM81.9591 28.0206H81.8813V28.0984H81.9591V28.0206ZM81.9591 12.5674V12.4896H81.8813V12.5674H81.9591ZM84.5087 12.5674H84.5866V12.4896H84.5087V12.5674ZM84.5087 15.2414L84.5846 15.2587L84.5866 15.2501V15.2414H84.5087ZM84.1045 17.0137L84.0287 16.9964L84.007 17.0915H84.1045V17.0137ZM84.8197 17.0137V17.0915H84.8821L84.8956 17.0305L84.8197 17.0137ZM96.5417 28.0206V28.0984H96.6195V28.0206H96.5417ZM93.9921 28.0206H93.9143V28.0984H93.9921V28.0206ZM90.0744 14.464V14.3862C88.4203 14.3862 87.0068 15.0328 86.008 16.2093C85.01 17.3847 84.4309 19.083 84.4309 21.1801H84.5087H84.5866C84.5866 19.1108 85.1579 17.451 86.1266 16.31C87.0944 15.1701 88.4637 14.5419 90.0744 14.5419V14.464ZM84.5087 21.1801H84.4309V28.0206H84.5087H84.5866V21.1801H84.5087ZM84.5087 28.0206V27.9427H81.9591V28.0206V28.0984H84.5087V28.0206ZM81.9591 28.0206H82.0369V12.5674H81.9591H81.8813V28.0206H81.9591ZM81.9591 12.5674V12.6452H84.5087V12.5674V12.4896H81.9591V12.5674ZM84.5087 12.5674H84.4309V15.2414H84.5087H84.5866V12.5674H84.5087ZM84.5087 15.2414L84.4329 15.2241L84.0287 16.9964L84.1045 17.0137L84.1804 17.031L84.5846 15.2587L84.5087 15.2414ZM84.1045 17.0137V17.0915H84.8197V17.0137V16.9358H84.1045V17.0137ZM84.8197 17.0137L84.8956 17.0305C85.2037 15.6444 85.8416 14.4714 86.8134 13.6449C87.7846 12.819 89.0952 12.3343 90.7584 12.3343V12.2564V12.1786C89.0636 12.1786 87.7157 12.6733 86.7126 13.5264C85.71 14.379 85.0575 15.5846 84.7437 16.9968L84.8197 17.0137ZM90.7584 12.2564V12.3343C92.5001 12.3343 93.9234 12.8426 94.9116 13.8689C95.9001 14.8957 96.4639 16.4517 96.4639 18.5683H96.5417H96.6195C96.6195 16.4251 96.0484 14.8253 95.0237 13.761C93.9986 12.6964 92.5302 12.1786 90.7584 12.1786V12.2564ZM96.5417 18.5683H96.4639V28.0206H96.5417H96.6195V18.5683H96.5417ZM96.5417 28.0206V27.9427H93.9921V28.0206V28.0984H96.5417V28.0206ZM93.9921 28.0206H94.0699V18.9103H93.9921H93.9143V28.0206H93.9921ZM93.9921 18.9103H94.0699C94.0699 17.3013 93.7501 16.1661 93.0818 15.4338C92.4119 14.6997 91.4067 14.3862 90.0744 14.3862V14.464V14.5419C91.385 14.5419 92.3386 14.8502 92.9668 15.5387C93.5967 16.2288 93.9143 17.3168 93.9143 18.9103H93.9921ZM105.986 27.3054V27.3832H106.043L106.06 27.3295L105.986 27.3054ZM110.774 12.5674V12.4896H110.718L110.7 12.5433L110.774 12.5674ZM113.262 12.5674L113.336 12.5915L113.369 12.4896H113.262V12.5674ZM108.225 28.0206V28.0984H108.281L108.299 28.0447L108.225 28.0206ZM103.001 28.0206L102.927 28.0448L102.945 28.0984H103.001V28.0206ZM97.9331 12.5674V12.4896H97.8257L97.8592 12.5916L97.9331 12.5674ZM100.421 12.5674L100.495 12.5432L100.477 12.4896H100.421V12.5674ZM105.24 27.3054L105.166 27.3296L105.184 27.3832H105.24V27.3054ZM105.986 27.3054L106.06 27.3295L110.848 12.5914L110.774 12.5674L110.7 12.5433L105.912 27.2814L105.986 27.3054ZM110.774 12.5674V12.6452H113.262V12.5674V12.4896H110.774V12.5674ZM113.262 12.5674L113.188 12.5433L108.151 27.9964L108.225 28.0206L108.299 28.0447L113.336 12.5915L113.262 12.5674ZM108.225 28.0206V27.9427H103.001V28.0206V28.0984H108.225V28.0206ZM103.001 28.0206L103.075 27.9963L98.007 12.5431L97.9331 12.5674L97.8592 12.5916L102.927 28.0448L103.001 28.0206ZM97.9331 12.5674V12.6452H100.421V12.5674V12.4896H97.9331V12.5674ZM100.421 12.5674L100.347 12.5916L105.166 27.3296L105.24 27.3054L105.314 27.2812L100.495 12.5432L100.421 12.5674ZM105.24 27.3054V27.3832H105.986V27.3054V27.2276H105.24V27.3054ZM128.703 20.7759V20.8537H128.781V20.7759H128.703ZM116.514 20.7759V20.6981H116.432L116.437 20.78L116.514 20.7759ZM126.682 22.6104V22.5326H126.62L126.606 22.5922L126.682 22.6104ZM129.231 22.6104L129.307 22.6281L129.329 22.5326H129.231V22.6104ZM116.514 18.8481H116.436V18.926H116.514V18.8481ZM126.184 18.8481V18.926H126.262V18.8481H126.184ZM113.996 20.0919H114.074C114.074 17.6209 114.845 15.6832 116.154 14.3634C117.462 13.0435 119.314 12.3343 121.489 12.3343V12.2564V12.1786C119.28 12.1786 117.385 12.8997 116.043 14.2538C114.701 15.608 113.918 17.5879 113.918 20.0919H113.996ZM121.489 12.2564V12.3343C123.649 12.3343 125.431 13.0204 126.673 14.2892C127.915 15.558 128.625 17.418 128.625 19.7809H128.703H128.781C128.781 17.3867 128.06 15.4844 126.784 14.1803C125.507 12.8761 123.682 12.1786 121.489 12.1786V12.2564ZM128.703 19.7809H128.625V20.7759H128.703H128.781V19.7809H128.703ZM128.703 20.7759V20.6981H116.514V20.7759V20.8537H128.703V20.7759ZM116.514 20.7759L116.437 20.78C116.515 22.2508 116.898 23.6224 117.753 24.6274C118.61 25.6352 119.932 26.2639 121.862 26.2639V26.1861V26.1083C119.968 26.1083 118.694 25.4933 117.872 24.5266C117.047 23.5572 116.669 22.2238 116.592 20.7718L116.514 20.7759ZM121.862 26.1861V26.2639C123.15 26.2639 124.232 25.9498 125.064 25.3353C125.897 24.7204 126.474 23.8096 126.757 22.6285L126.682 22.6104L126.606 22.5922C126.33 23.7432 125.771 24.6202 124.972 25.2101C124.172 25.8005 123.125 26.1083 121.862 26.1083V26.1861ZM126.682 22.6104V22.6882H129.231V22.6104V22.5326H126.682V22.6104ZM129.231 22.6104L129.156 22.5927C128.878 23.7797 128.27 25.1952 127.125 26.3131C125.982 27.4293 124.299 28.2537 121.862 28.2537V28.3315V28.4093C124.338 28.4093 126.06 27.5702 127.234 26.4244C128.405 25.2803 129.025 23.8353 129.307 22.6281L129.231 22.6104ZM121.862 28.3315V28.2537C119.114 28.2537 117.171 27.3128 115.913 25.8287C114.653 24.3426 114.074 22.3025 114.074 20.0919H113.996H113.918C113.918 22.3275 114.504 24.4072 115.794 25.9293C117.086 27.4535 119.076 28.4093 121.862 28.4093V28.3315ZM116.514 18.8481V18.926H126.184V18.8481V18.7703H116.514V18.8481ZM126.184 18.8481H126.262C126.262 17.6029 125.852 16.4707 125.047 15.6494C124.241 14.8276 123.046 14.324 121.489 14.324V14.4019V14.4797C123.011 14.4797 124.163 14.9711 124.935 15.7584C125.708 16.5461 126.106 17.637 126.106 18.8481H126.184ZM121.489 14.4019V14.324C118.404 14.324 116.436 16.3438 116.436 18.8481H116.514H116.592C116.592 16.4398 118.48 14.4797 121.489 14.4797V14.4019ZM134.362 28.0206V28.0984H134.44V28.0206H134.362ZM131.812 28.0206H131.734V28.0984H131.812V28.0206ZM133.958 12.2875L133.954 12.3653L133.955 12.3653L133.958 12.2875ZM142.539 12.5674H142.617V12.4921L142.542 12.4896L142.539 12.5674ZM142.539 14.775L142.536 14.8527L142.617 14.8558V14.775H142.539ZM134.362 14.464L134.365 14.3863L134.284 14.3832V14.464H134.362ZM134.362 28.0206V27.9427H131.812V28.0206V28.0984H134.362V28.0206ZM131.812 28.0206H131.89V14.4019H131.812H131.734V28.0206H131.812ZM131.812 14.4019H131.89C131.89 13.6816 132.059 13.1616 132.392 12.8284C132.724 12.4959 133.236 12.3347 133.954 12.3653L133.958 12.2875L133.961 12.2098C133.218 12.1782 132.657 12.3435 132.282 12.7183C131.908 13.0925 131.734 13.6608 131.734 14.4019H131.812ZM133.958 12.2875L133.955 12.3653L142.537 12.6451L142.539 12.5674L142.542 12.4896L133.96 12.2098L133.958 12.2875ZM142.539 12.5674H142.461V14.775H142.539H142.617V12.5674H142.539ZM142.539 14.775L142.542 14.6972L134.365 14.3863L134.362 14.464L134.359 14.5418L142.536 14.8527L142.539 14.775ZM134.362 14.464H134.284V28.0206H134.362H134.44V14.464H134.362ZM161.837 12.5674H161.915V12.4896H161.837V12.5674ZM161.837 14.775V14.8528H161.915V14.775H161.837ZM158.541 15.3657L158.497 15.3015L158.43 15.3471L158.478 15.4121L158.541 15.3657ZM152.291 25.7508L152.265 25.6777L152.304 25.8276L152.291 25.7508ZM144.798 33.7106H144.72V33.7884H144.798V33.7106ZM144.798 31.5341V31.4562H144.72V31.5341H144.798ZM146.166 28.2382L146.091 28.2604L146.114 28.3345L146.188 28.3129L146.166 28.2382ZM145.637 26.4659L145.618 26.3905L145.54 26.4106L145.563 26.4881L145.637 26.4659ZM153.006 24.3516L153.03 24.4259L153.084 24.4088V24.3516H153.006ZM153.006 23.6365H153.084V23.5362L152.987 23.5611L153.006 23.6365ZM156.862 13.7489L156.817 13.8126L156.86 13.8424L156.904 13.8146L156.862 13.7489ZM160.469 12.5674V12.6452H161.837V12.5674V12.4896H160.469V12.5674ZM161.837 12.5674H161.759V14.775H161.837H161.915V12.5674H161.837ZM161.837 14.775V14.6972H160.531V14.775V14.8528H161.837V14.775ZM160.531 14.775V14.6972C159.676 14.6972 159.101 14.8882 158.497 15.3015L158.541 15.3657L158.585 15.43C159.162 15.0349 159.707 14.8528 160.531 14.8528V14.775ZM158.541 15.3657L158.478 15.4121C159.09 16.238 159.489 17.31 159.489 18.6305H159.567H159.645C159.645 17.277 159.235 16.1724 158.604 15.3194L158.541 15.3657ZM159.567 18.6305H159.489C159.489 20.27 158.847 21.6026 157.625 22.74C156.4 23.88 154.593 24.824 152.265 25.6777L152.291 25.7508L152.318 25.8238C154.654 24.9674 156.484 24.0148 157.731 22.8539C158.981 21.6904 159.645 20.3179 159.645 18.6305H159.567ZM152.291 25.7508L152.304 25.8276C154.103 25.5329 155.859 25.512 157.162 25.9833C157.812 26.2184 158.346 26.5749 158.717 27.0781C159.089 27.5809 159.303 28.2364 159.303 29.0777H159.38H159.458C159.458 28.2089 159.237 27.5196 158.843 26.9857C158.449 26.4522 157.886 26.0799 157.215 25.8369C155.875 25.3521 154.087 25.3779 152.279 25.674L152.291 25.7508ZM159.38 29.0777H159.303C159.303 30.0896 159.042 30.8721 158.5 31.4813C157.956 32.0924 157.12 32.5376 155.951 32.8582C153.612 33.5001 149.978 33.6327 144.798 33.6327V33.7106V33.7884C149.972 33.7884 153.629 33.6568 155.993 33.0083C157.176 32.6837 158.044 32.2272 158.616 31.5848C159.19 30.9406 159.458 30.118 159.458 29.0777H159.38ZM144.798 33.7106H144.876V31.5341H144.798H144.72V33.7106H144.798ZM144.798 31.5341V31.6119C149.226 31.6119 152.243 31.5578 154.152 31.1985C155.106 31.019 155.795 30.7613 156.247 30.3871C156.702 30.009 156.909 29.5174 156.909 28.8912H156.831H156.753C156.753 29.4775 156.563 29.9226 156.147 30.2674C155.727 30.6161 155.069 30.8676 154.123 31.0456C152.231 31.4015 149.231 31.4562 144.798 31.4562V31.5341ZM156.831 28.8912H156.909C156.909 28.4501 156.799 28.0858 156.595 27.7909C156.391 27.4965 156.097 27.2765 155.738 27.1177C155.022 26.8011 154.036 26.7223 152.94 26.7847C150.746 26.9096 148.072 27.6038 146.144 28.1635L146.166 28.2382L146.188 28.3129C148.115 27.7533 150.774 27.0638 152.949 26.94C154.037 26.878 154.994 26.9586 155.675 27.26C156.015 27.4101 156.283 27.6138 156.467 27.8795C156.65 28.1447 156.753 28.4771 156.753 28.8912H156.831ZM146.166 28.2382L146.241 28.216L145.712 26.4437L145.637 26.4659L145.563 26.4881L146.091 28.2604L146.166 28.2382ZM145.637 26.4659L145.657 26.5413C148.208 25.8879 150.635 25.1723 153.03 24.4259L153.006 24.3516L152.983 24.2773C150.59 25.0233 148.166 25.738 145.618 26.3905L145.637 26.4659ZM153.006 24.3516H153.084V23.6365H153.006H152.929V24.3516H153.006ZM153.006 23.6365L152.987 23.5611C150.511 24.1957 148.199 24.1076 146.511 23.2752C144.829 22.4456 143.756 20.8723 143.756 18.5061H143.679H143.601C143.601 20.9283 144.704 22.5575 146.443 23.4147C148.175 24.2691 150.527 24.352 153.026 23.7118L153.006 23.6365ZM143.679 18.5061H143.756C143.756 16.4006 144.616 14.8619 146.021 13.847C147.43 12.8297 149.394 12.3343 151.607 12.3343V12.2564V12.1786C149.374 12.1786 147.374 12.6782 145.93 13.7208C144.483 14.7658 143.601 16.352 143.601 18.5061H143.679ZM151.607 12.2564V12.3343C153.461 12.3343 155.372 12.798 156.817 13.8126L156.862 13.7489L156.907 13.6852C155.429 12.6476 153.484 12.1786 151.607 12.1786V12.2564ZM156.862 13.7489L156.904 13.8146C157.711 13.3023 158.256 13.0114 158.771 12.8475C159.284 12.684 159.772 12.6452 160.469 12.6452V12.5674V12.4896C159.766 12.4896 159.259 12.5285 158.723 12.6992C158.189 12.8695 157.63 13.1695 156.82 13.6832L156.862 13.7489ZM151.638 22.7037V22.7815C153.277 22.7815 154.641 22.501 155.597 21.8307C156.558 21.1568 157.095 20.0969 157.095 18.5683H157.017H156.94C156.94 20.0557 156.42 21.0636 155.507 21.7033C154.59 22.3467 153.264 22.6259 151.638 22.6259V22.7037ZM157.017 18.5683H157.095C157.095 17.055 156.558 16.0029 155.597 15.333C154.641 14.6667 153.277 14.3862 151.638 14.3862V14.464V14.5419C153.264 14.5419 154.59 14.821 155.508 15.4607C156.42 16.0966 156.94 17.0967 156.94 18.5683H157.017ZM151.638 14.464V14.3862C150.015 14.3862 148.644 14.6668 147.677 15.3327C146.704 16.0023 146.15 17.0541 146.15 18.5683H146.228H146.306C146.306 17.0976 146.841 16.0973 147.765 15.4609C148.694 14.821 150.028 14.5419 151.638 14.5419V14.464ZM146.228 18.5683H146.15C146.15 20.0977 146.704 21.1574 147.676 21.831C148.644 22.5009 150.015 22.7815 151.638 22.7815V22.7037V22.6259C150.028 22.6259 148.694 22.3467 147.765 21.703C146.841 21.0629 146.306 20.0549 146.306 18.5683H146.228ZM177.372 20.7759V20.8537H177.449V20.7759H177.372ZM165.183 20.7759V20.6981H165.101L165.105 20.78L165.183 20.7759ZM175.351 22.6104V22.5326H175.289L175.275 22.5922L175.351 22.6104ZM177.9 22.6104L177.976 22.6281L177.998 22.5326H177.9V22.6104ZM165.183 18.8481H165.105V18.926H165.183V18.8481ZM174.853 18.8481V18.926H174.931V18.8481H174.853ZM162.665 20.0919H162.742C162.742 17.6209 163.514 15.6832 164.823 14.3634C166.131 13.0435 167.983 12.3343 170.158 12.3343V12.2564V12.1786C167.949 12.1786 166.054 12.8997 164.712 14.2538C163.37 15.608 162.587 17.5879 162.587 20.0919H162.665ZM170.158 12.2564V12.3343C172.318 12.3343 174.1 13.0204 175.342 14.2892C176.584 15.558 177.294 17.418 177.294 19.7809H177.372H177.449C177.449 17.3867 176.729 15.4844 175.453 14.1803C174.176 12.8761 172.351 12.1786 170.158 12.1786V12.2564ZM177.372 19.7809H177.294V20.7759H177.372H177.449V19.7809H177.372ZM177.372 20.7759V20.6981H165.183V20.7759V20.8537H177.372V20.7759ZM165.183 20.7759L165.105 20.78C165.184 22.2508 165.567 23.6224 166.422 24.6274C167.279 25.6352 168.601 26.2639 170.531 26.2639V26.1861V26.1083C168.637 26.1083 167.363 25.4933 166.541 24.5266C165.716 23.5572 165.338 22.2238 165.261 20.7718L165.183 20.7759ZM170.531 26.1861V26.2639C171.819 26.2639 172.901 25.9498 173.733 25.3353C174.566 24.7204 175.143 23.8096 175.426 22.6285L175.351 22.6104L175.275 22.5922C174.999 23.7432 174.44 24.6202 173.641 25.2101C172.841 25.8005 171.793 26.1083 170.531 26.1083V26.1861ZM175.351 22.6104V22.6882H177.9V22.6104V22.5326H175.351V22.6104ZM177.9 22.6104L177.824 22.5927C177.547 23.7797 176.939 25.1952 175.794 26.3131C174.651 27.4293 172.968 28.2537 170.531 28.2537V28.3315V28.4093C173.007 28.4093 174.729 27.5702 175.902 26.4244C177.074 25.2803 177.694 23.8353 177.976 22.6281L177.9 22.6104ZM170.531 28.3315V28.2537C167.783 28.2537 165.84 27.3128 164.582 25.8287C163.322 24.3426 162.742 22.3025 162.742 20.0919H162.665H162.587C162.587 22.3275 163.173 24.4072 164.463 25.9293C165.755 27.4535 167.745 28.4093 170.531 28.4093V28.3315ZM165.183 18.8481V18.926H174.853V18.8481V18.7703H165.183V18.8481ZM174.853 18.8481H174.931C174.931 17.6029 174.521 16.4707 173.715 15.6494C172.91 14.8276 171.715 14.324 170.158 14.324V14.4019V14.4797C171.68 14.4797 172.832 14.9711 173.604 15.7584C174.377 16.5461 174.775 17.637 174.775 18.8481H174.853ZM170.158 14.4019V14.324C167.073 14.324 165.105 16.3438 165.105 18.8481H165.183H165.261C165.261 16.4398 167.149 14.4797 170.158 14.4797V14.4019Z" fill="#0A0A0A"/>
</svg>
